<?xml version="1.0" encoding="UTF-8"?>
<svg id="Warstwa_1" data-name="Warstwa 1" xmlns="http://www.w3.org/2000/svg" viewBox="0 0 909.175 183.324">
  <defs>
    <style>
      .cls-1 {
        fill: none;
      }

      .cls-2 {
        fill: #e6e6e6;
      }

      .cls-3 {
        fill: #fff;
      }

      .cls-4 {
        fill: #f2f2f2;
        opacity: .21;
      }
    </style>
  </defs>
  <path class="cls-1" d="M537.803,131.354c-.617-1.56-1.216-3.12-1.796-4.681-.42-1.125-.797-2.251-1.178-3.377-.403,1.155-.807,2.311-1.271,3.486-.617,1.561-1.252,3.102-1.905,4.626-.653,1.524-1.306,3.086-1.959,4.681l-6.407,14.369h23.006l-6.476-14.478c-.726-1.524-1.398-3.065-2.014-4.626Z"/>
  <path class="cls-1" d="M450.828,136.416c1.633-.871,2.939-2.085,3.919-3.647,.98-1.56,1.47-3.356,1.47-5.388s-.527-3.773-1.578-5.225c-1.053-1.451-2.449-2.575-4.191-3.374-1.742-.798-3.774-1.197-6.096-1.197h-19.377v20.138h20.247c2.104,0,3.973-.436,5.606-1.306Z"/>
  <path class="cls-1" d="M525.501,56.66l-6.476-14.478c-.726-1.524-1.398-3.065-2.014-4.626-.617-1.56-1.216-3.12-1.796-4.681-.42-1.125-.797-2.251-1.178-3.377-.403,1.155-.807,2.311-1.271,3.486-.617,1.561-1.252,3.102-1.905,4.626-.653,1.524-1.306,3.086-1.959,4.681l-6.407,14.369h23.006Z"/>
  <path class="cls-1" d="M348.071,42.182c1.704-.871,3.065-2.049,4.082-3.538,1.015-1.487,1.524-3.174,1.524-5.062s-.509-3.483-1.524-4.79c-1.017-1.307-2.378-2.322-4.082-3.048-1.706-.724-3.611-1.089-5.715-1.089h-17.961v18.832h17.961c2.104,0,4.009-.435,5.715-1.306Z"/>
  <path class="cls-1" d="M122.159,28.263c-35.012,0-63.392,28.38-63.392,63.392s28.38,63.406,63.392,63.406,63.406-28.38,63.406-63.406-28.38-63.392-63.406-63.392Zm17.691,75.561c-13.933,6.49-32.108,12.852-37.987-1.779-.555-1.395-.897-2.861-1.053-4.355-.242-2.292-.242-6.291-.242-7.045,.042-.427,.042-1.608,.071-2.975,.029-1.38,.086-2.918,.199-4.042,.157-1.494,.498-2.96,1.053-4.355,5.878-14.631,24.025-8.269,37.93-1.779,12.61,5.878,13.222,11.514,13.123,12.994v.028c.128,.726,.712,6.889-13.094,13.308Z"/>
  <path class="cls-1" d="M750.231,124.17c-2.25-1.995-4.953-3.555-8.109-4.681-3.157-1.124-6.55-1.687-10.178-1.687-3.701,0-7.113,.563-10.232,1.687-3.121,1.126-5.842,2.667-8.164,4.626-2.323,1.959-4.082,4.3-5.28,7.021-1.197,2.722-1.796,5.644-1.796,8.763s.599,6.042,1.796,8.763c1.198,2.721,2.956,5.061,5.28,7.021,2.321,1.96,5.043,3.502,8.164,4.626,3.12,1.126,6.532,1.687,10.232,1.687s7.111-.561,10.232-1.687c3.119-1.124,5.805-2.684,8.055-4.681,2.249-1.995,3.991-4.335,5.225-7.021,1.233-2.684,1.851-5.587,1.851-8.709s-.617-6.023-1.851-8.708c-1.235-2.684-2.977-5.024-5.225-7.021Z"/>
  <path class="cls-4" d="M241.176,3.657h-10.299c5.568,.013,10.068,4.517,10.068,10.088V174.005c0,3.131-2.533,5.665-5.665,5.665h11.903c4.24,0,7.677-3.437,7.677-7.677V17.341c0-7.558-6.127-13.684-13.684-13.684Z"/>
  <path class="cls-2" d="M324.722,59.708h20.682c5.225,0,9.906-1.16,14.043-3.483,4.136-2.322,7.419-5.46,9.851-9.416,2.43-3.954,3.646-8.472,3.646-13.552,0-4.716-1.162-8.962-3.483-12.736-2.323-3.773-5.462-6.749-9.416-8.926-3.956-2.177-8.436-3.265-13.443-3.265h-40.385V84.527h18.506v-24.819Zm-.327-35.051h17.961c2.104,0,4.009,.364,5.715,1.089,1.704,.726,3.065,1.742,4.082,3.048,1.015,1.306,1.524,2.903,1.524,4.79s-.509,3.575-1.524,5.062c-1.017,1.488-2.378,2.667-4.082,3.538-1.706,.871-3.611,1.306-5.715,1.306h-17.961V24.656Z"/>
  <polygon class="cls-2" points="458.721 68.198 416.267 68.198 416.267 8.328 397.762 8.328 397.762 84.527 458.721 84.527 458.721 68.198"/>
  <path class="cls-2" d="M531.734,70.593l6.232,13.934h18.941l-34.289-76.198h-16.655l-34.398,76.198h18.505l6.213-13.934h35.451Zm-22.832-28.302c.653-1.595,1.307-3.157,1.959-4.681,.653-1.524,1.288-3.065,1.905-4.626,.464-1.175,.868-2.331,1.271-3.486,.381,1.126,.758,2.251,1.178,3.377,.58,1.561,1.179,3.121,1.796,4.681,.616,1.561,1.288,3.102,2.014,4.626l6.476,14.478h-23.006l6.407-14.369Z"/>
  <polygon class="cls-2" points="609.266 84.527 609.266 53.354 642.031 8.328 621.022 8.328 600.017 38.093 577.916 8.328 555.709 8.328 590.652 53.806 590.652 84.527 609.266 84.527"/>
  <polygon class="cls-2" points="384.374 102.126 361.405 102.126 324.722 133.789 324.722 102.126 306.216 102.126 306.216 178.325 324.722 178.325 324.722 153.342 335.715 143.903 363.038 178.325 385.136 178.325 348.259 133.134 384.374 102.126"/>
  <path class="cls-2" d="M461.17,148.608c4.172-2.177,7.473-5.207,9.906-9.089,2.431-3.881,3.647-8.218,3.647-13.008,0-4.861-1.143-9.125-3.429-12.791-2.286-3.664-5.497-6.513-9.634-8.545-4.136-2.031-8.999-3.048-14.587-3.048h-39.732v76.198h17.634v-26.452h14.584l17.746,26.452h21.336l-19.582-28.782c.709-.298,1.427-.579,2.11-.936Zm-36.195-31.024h19.377c2.322,0,4.354,.4,6.096,1.197,1.741,.799,3.138,1.924,4.191,3.374,1.051,1.453,1.578,3.194,1.578,5.225s-.49,3.828-1.47,5.388c-.979,1.562-2.286,2.776-3.919,3.647-1.633,.871-3.502,1.306-5.606,1.306h-20.247v-20.138Z"/>
  <path class="cls-2" d="M526.755,102.126l-34.399,76.198h18.506l6.213-13.934h35.451l6.232,13.934h18.941l-34.289-76.198h-16.655Zm-3.468,48.332l6.407-14.369c.653-1.595,1.307-3.157,1.959-4.681,.653-1.524,1.288-3.065,1.905-4.626,.464-1.175,.868-2.331,1.271-3.486,.381,1.126,.758,2.252,1.178,3.377,.58,1.561,1.179,3.121,1.796,4.681,.616,1.561,1.288,3.102,2.014,4.626l6.476,14.478h-23.006Z"/>
  <polygon class="cls-2" points="674.578 102.126 651.61 102.126 614.926 133.789 614.926 102.126 596.42 102.126 596.42 178.325 614.926 178.325 614.926 153.342 625.919 143.903 653.243 178.325 675.34 178.325 638.463 133.134 674.578 102.126"/>
  <path class="cls-2" d="M763.784,111.651c-3.956-3.592-8.637-6.368-14.042-8.328-5.407-1.959-11.375-2.939-17.907-2.939-6.459,0-12.373,.998-17.743,2.994-5.371,1.997-10.052,4.773-14.042,8.327-3.992,3.557-7.076,7.729-9.253,12.518-2.177,4.79-3.266,10.015-3.266,15.675,0,5.589,1.089,10.796,3.266,15.621,2.177,4.827,5.242,9.018,9.198,12.573,3.954,3.557,8.635,6.333,14.042,8.327,5.406,1.995,11.376,2.994,17.907,2.994,6.458,0,12.391-.98,17.798-2.939,5.406-1.96,10.086-4.735,14.042-8.328,3.955-3.592,7.002-7.783,9.144-12.573,2.14-4.79,3.211-10.015,3.211-15.675s-1.071-10.886-3.211-15.675c-2.141-4.79-5.189-8.981-9.144-12.573Zm-8.327,36.956c-1.235,2.686-2.977,5.026-5.225,7.021-2.25,1.997-4.936,3.557-8.055,4.681-3.121,1.126-6.531,1.687-10.232,1.687s-7.113-.561-10.232-1.687c-3.121-1.124-5.842-2.667-8.164-4.626-2.323-1.959-4.082-4.3-5.28-7.021-1.197-2.722-1.796-5.642-1.796-8.763s.599-6.041,1.796-8.763c1.198-2.721,2.956-5.062,5.28-7.021,2.321-1.96,5.043-3.501,8.164-4.626,3.12-1.124,6.532-1.687,10.232-1.687,3.628,0,7.021,.563,10.178,1.687,3.157,1.126,5.86,2.686,8.109,4.681,2.249,1.997,3.991,4.337,5.225,7.021,1.233,2.686,1.851,5.589,1.851,8.708s-.617,6.025-1.851,8.709Z"/>
  <polygon class="cls-2" points="746.748 88.411 740.761 75.675 718.01 88.193 722.038 96.901 746.748 88.411"/>
  <path class="cls-2" d="M887.39,102.126l-13.28,38.099c-.435,1.453-.854,2.939-1.252,4.463-.4,1.524-.781,3.031-1.143,4.517-.334,1.364-.608,2.708-.848,4.041-.465-1.677-.967-3.392-1.547-5.184-.799-2.466-1.706-5.007-2.721-7.62l-11.321-28.411h-15.24l-11.43,28.52c-.944,2.395-1.796,4.79-2.558,7.184-.591,1.858-1.082,3.688-1.521,5.502-.11-.491-.208-.969-.33-1.474-.473-1.96-.963-3.919-1.47-5.878-.509-1.96-1.017-3.737-1.524-5.334l-12.301-38.426h-19.049l25.037,76.198h15.131l17-42.398,17.725,42.398h14.151l26.887-76.198h-18.396Z"/>
  <path class="cls-3" d="M152.945,90.488c.099-1.48-.512-7.116-13.123-12.994-13.905-6.49-32.052-12.852-37.93,1.779-.555,1.395-.897,2.861-1.053,4.355-.114,1.124-.171,2.662-.199,4.042-.029,1.366-.029,2.548-.071,2.975,0,.754,0,4.754,.242,7.045,.156,1.494,.498,2.96,1.053,4.355,5.878,14.631,24.053,8.269,37.987,1.779,13.806-6.419,13.222-12.582,13.094-13.308v-.028Z"/>
  <path class="cls-3" d="M240.944,174.005V13.746c0-5.571-4.499-10.076-10.068-10.088-.008,0-.016-.002-.024-.002H13.465C7.9,3.655,3.388,8.167,3.388,13.746V169.578c0,5.565,4.512,10.091,10.077,10.091H235.28c3.131,0,5.665-2.533,5.665-5.665Zm-118.785-18.944c-35.012,0-63.392-28.38-63.392-63.406s28.38-63.392,63.392-63.392,63.406,28.38,63.406,63.392-28.38,63.406-63.406,63.406Z"/>
</svg>